<svg xmlns="http://www.w3.org/2000/svg" version="1.1" xmlns:xlink="http://www.w3.org/1999/xlink" xmlns:svgjs="http://svgjs.dev/svgjs" width="2000" height="1467" viewBox="0 0 2000 1467"><g transform="matrix(1,0,0,1,-1.2940063518180978,-2.3661290322580726)"><svg viewBox="0 0 338 248" data-background-color="#ffffff" preserveAspectRatio="xMidYMid meet" height="1467" width="2000" xmlns="http://www.w3.org/2000/svg" xmlns:xlink="http://www.w3.org/1999/xlink"><g id="tight-bounds" transform="matrix(1,0,0,1,0.2186870734572608,0.4000000000000057)"><svg viewBox="0 0 337.5626258530855 247.2" height="247.2" width="337.5626258530855"><g><svg viewBox="0 0 397.4976 291.090894531569" height="247.2" width="337.5626258530855"><g><rect width="397.4976" height="8.915729637020236" x="0" y="159.9707591298263" fill="#0023ff" opacity="1" stroke-width="0" stroke="transparent" fill-opacity="1" class="rect-yte-0" data-fill-palette-color="secondary" rx="1%" id="yte-0" data-palette-color="#0023ff"></rect></g><g transform="matrix(1,0,0,1,0.9887999999999693,192.22609514648065)"><svg viewBox="0 0 395.52000000000004 98.86479938508839" height="98.86479938508839" width="395.52000000000004"><g id="textblocktransform"><svg viewBox="0 0 395.52000000000004 98.86479938508839" height="98.86479938508839" width="395.52000000000004" id="textblock"><g><svg viewBox="0 0 395.52000000000004 98.86479938508839" height="98.86479938508839" width="395.52000000000004"><g transform="matrix(1,0,0,1,0,0)"><svg width="395.52000000000004" viewBox="4.69 -39.7 158.8 39.7" height="98.86479938508839" data-palette-color="#0080ff"><path d="M4.69-6.13L4.69-18.68Q4.69-20.14 5.09-21.41 5.49-22.68 6.2-23.61 6.91-24.54 7.87-25.06 8.84-25.59 9.96-25.59L9.96-25.59 26.42-25.59 26.42-4.17 31.71-4.17Q31.62-3.32 31.24-2.55 30.86-1.78 30.29-1.22 29.71-0.66 28.98-0.33 28.25 0 27.44 0L27.44 0 24.83 0Q23.63 0 22.56-0.82 21.48-1.64 20.78-3.03L20.78-3.03Q20.07-1.64 18.99-0.82 17.92 0 16.72 0L16.72 0 9.33 0Q8.37 0 7.52-0.49 6.67-0.98 6.04-1.81 5.42-2.64 5.05-3.75 4.69-4.86 4.69-6.13L4.69-6.13ZM10.5-4.17L20.61-4.17 20.61-21.39 10.5-21.39 10.5-4.17ZM38.52-31.47L38.52-31.47Q37.67-31.47 36.92-31.79 36.18-32.1 35.62-32.67 35.06-33.23 34.74-33.97 34.42-34.72 34.42-35.57L34.42-35.57Q34.42-36.43 34.74-37.17 35.06-37.92 35.62-38.48 36.18-39.04 36.92-39.37 37.67-39.7 38.52-39.7L38.52-39.7Q39.38-39.7 40.12-39.37 40.87-39.04 41.43-38.48 41.99-37.92 42.32-37.17 42.65-36.43 42.65-35.57L42.65-35.57Q42.65-34.72 42.32-33.97 41.99-33.23 41.43-32.67 40.87-32.1 40.11-31.79 39.35-31.47 38.52-31.47ZM35.67-6.2L35.67-25.56 41.5-25.56 41.5-4.17 46.73-4.17Q46.65-3.32 46.27-2.55 45.9-1.78 45.32-1.22 44.75-0.66 44.02-0.33 43.28 0 42.48 0L42.48 0 40.33 0Q39.38 0 38.52-0.49 37.67-0.98 37.03-1.82 36.4-2.66 36.03-3.78 35.67-4.91 35.67-6.2L35.67-6.2ZM51.58 0L51.58-25.56 57.42-25.56 57.42-15.75 63.35-23.71Q64.13-24.63 64.97-25.11 65.82-25.59 67.04-25.59L67.04-25.59Q68.01-25.59 68.9-25.1 69.79-24.61 70.47-23.77 71.14-22.92 71.54-21.8 71.94-20.68 71.94-19.38L71.94-19.38 71.94-16.63 77.07-23.71Q77.85-24.61 78.83-25.1 79.8-25.59 81-25.59L81-25.59Q81.98-25.59 82.87-25.1 83.76-24.61 84.43-23.77 85.1-22.92 85.51-21.8 85.91-20.68 85.91-19.38L85.91-19.38 85.91-4.17 90.25-4.17Q90.16-3.32 89.78-2.55 89.4-1.78 88.83-1.22 88.25-0.66 87.52-0.33 86.79 0 85.98 0L85.98 0 84.66 0Q83.71 0 82.87-0.49 82.03-0.98 81.42-1.82 80.81-2.66 80.45-3.78 80.1-4.91 80.1-6.2L80.1-6.2 80.1-20.87 71.94-10.99 71.94 0 66.11 0 66.11-20.87 57.42-10.13 57.42 0 51.58 0ZM100.41 0L91.57-25.56 97.5-25.56 104.17-4.1 110.83-25.56 116.74-25.56 107.88 0 100.41 0ZM124.75-31.47L124.75-31.47Q123.89-31.47 123.15-31.79 122.4-32.1 121.84-32.67 121.28-33.23 120.96-33.97 120.64-34.72 120.64-35.57L120.64-35.57Q120.64-36.43 120.96-37.17 121.28-37.92 121.84-38.48 122.4-39.04 123.15-39.37 123.89-39.7 124.75-39.7L124.75-39.7Q125.6-39.7 126.34-39.37 127.09-39.04 127.65-38.48 128.21-37.92 128.54-37.17 128.87-36.43 128.87-35.57L128.87-35.57Q128.87-34.72 128.54-33.97 128.21-33.23 127.65-32.67 127.09-32.1 126.33-31.79 125.58-31.47 124.75-31.47ZM121.89-6.2L121.89-25.56 127.72-25.56 127.72-4.17 132.95-4.17Q132.88-3.32 132.5-2.55 132.12-1.78 131.55-1.22 130.97-0.66 130.24-0.33 129.51 0 128.7 0L128.7 0 126.55 0Q125.6 0 124.75-0.49 123.89-0.98 123.26-1.82 122.62-2.66 122.26-3.78 121.89-4.91 121.89-6.2L121.89-6.2ZM137.12-6.2L137.12-19.36Q137.12-20.65 137.49-21.78 137.85-22.9 138.48-23.74 139.1-24.58 139.95-25.07 140.81-25.56 141.76-25.56L141.76-25.56 153.04-25.56 153.04-38.82 158.85-38.82 158.85-4.17 163.49-4.17Q163.39-3.32 163.01-2.55 162.63-1.78 162.06-1.22 161.49-0.66 160.75-0.33 160.02 0 159.22 0L159.22 0 153.04 0 153.04-2.66Q152.38-1.42 151.35-0.71 150.33 0 149.18 0L149.18 0 141.76 0Q140.81 0 139.95-0.49 139.1-0.98 138.48-1.82 137.85-2.66 137.49-3.78 137.12-4.91 137.12-6.2L137.12-6.2ZM142.93-4.17L153.04-4.17 153.04-21.39 142.93-21.39 142.93-4.17Z" opacity="1" transform="matrix(1,0,0,1,0,0)" fill="#0080ff" class="wordmark-text-0" data-fill-palette-color="primary" id="text-0"></path></svg></g></svg></g></svg></g></svg></g><g transform="matrix(1,0,0,1,122.4332236249039,0)"><svg viewBox="0 0 152.63115275019217 136.63115275019217" height="136.63115275019217" width="152.63115275019217"><g><svg xmlns="http://www.w3.org/2000/svg" xmlns:xlink="http://www.w3.org/1999/xlink" version="1.1" x="8" y="0" viewBox="5 5 90 90" enable-background="new 0 0 100 100" xml:space="preserve" height="136.63115275019217" width="136.63115275019217" class="icon-icon-0" data-fill-palette-color="accent" id="icon-0"><polygon fill="#0023ff" points="81.013,5 67.025,25.433 73.26,25.433 73.26,95 88.766,95 88.766,25.433 95,25.433 " data-fill-palette-color="accent"></polygon><polygon fill="#0023ff" points="50,29.568 36.013,50 42.246,50 42.246,95 57.753,95 57.753,50 63.987,50 " data-fill-palette-color="accent"></polygon><polygon fill="#0023ff" points="18.986,50 5,70.432 11.234,70.432 11.234,95 26.74,95 26.74,70.432 32.975,70.432 " data-fill-palette-color="accent"></polygon></svg></g></svg></g><g><rect width="27.99127501350732" height="8.915729637020236" y="126.71542311317194" x="275.06437637509606" fill="#0023ff" data-fill-palette-color="secondary"></rect><rect width="27.99127501350732" height="8.915729637020236" y="126.71542311317194" x="94.44194861139658" fill="#0023ff" data-fill-palette-color="secondary"></rect></g></svg></g><defs></defs></svg><rect width="337.5626258530855" height="247.2" fill="none" stroke="none" visibility="hidden"></rect></g></svg></g></svg>